<svg width="46" height="389" viewBox="0 0 46 389" fill="none" xmlns="http://www.w3.org/2000/svg">
<path d="M26 3C26 1.34315 24.6569 -7.24234e-08 23 0C21.3431 7.24234e-08 20 1.34315 20 3L26 3ZM20.8787 388.121C22.0503 389.293 23.9498 389.293 25.1213 388.121L44.2132 369.029C45.3848 367.858 45.3848 365.958 44.2132 364.787C43.0416 363.615 41.1422 363.615 39.9706 364.787L23 381.757L6.02945 364.787C4.85788 363.615 2.95839 363.615 1.78681 364.787C0.615239 365.958 0.615239 367.858 1.78681 369.029L20.8787 388.121ZM20 3L20 386L26 386L26 3L20 3Z" fill="black"/>
</svg>
