<svg width="1920" height="3709" viewBox="0 0 1920 3709" fill="none" xmlns="http://www.w3.org/2000/svg">
<g clip-path="url(#clip0_22_2)">
<rect width="1920" height="3709" fill="#C4C4C4"/>
<path d="M-214 422.5C-132 146 497.5 126.5 711 126.5C1039.5 126.5 1052.23 -201.942 1180.5 -173C1360 -132.5 2140.5 213 2134.5 350C2128.5 487 1587 462.797 1413.5 575C1240 687.203 1209 916 1166.5 1064.5C1099.1 1300 763.042 1026.5 586.5 1222.5C271.696 1572 947 1558 1166.5 1680.5C1386 1803 1611 1988.5 1431 2100C1251 2211.5 273.064 2273.35 320 2590C344.375 2754.45 588.167 3035.83 649.5 3057" stroke="black" stroke-width="3"/>
</g>
<defs>
<clipPath id="clip0_22_2">
<rect width="1920" height="3709" fill="white"/>
</clipPath>
</defs>
</svg>
