<svg width="1923" height="3074" viewBox="0 0 1923 3074" fill="none" xmlns="http://www.w3.org/2000/svg">
<g clip-path="url(#clip0_22_2)">
<path d="M0 590.703C99.6 331.103 444.5 264.869 604.5 264.203C945.7 264.203 1054 133.536 1065.5 68.2025C1131 -170.797 1851.5 292.703 1894.5 323.203C2039.7 414.803 1594.33 641.703 1353.5 743.703C1225.5 797.914 1299 987.5 1256.5 1136C1170.65 1435.97 575.542 1079 399 1275C84.1961 1624.5 982.572 1927.12 1090.5 1985C1283.5 2088.5 1247.5 2218 1172.5 2300.5C1075.1 2407.64 451.018 2463 476.5 2733.5C491.855 2896.5 670.667 3052.83 732 3074" stroke="black" stroke-width="3"/>
</g>
<defs>
<clipPath id="clip0_22_2">
<rect width="1923" height="3074" fill="white"/>
</clipPath>
</defs>
</svg>
