<svg width="299" height="297" viewBox="0 0 299 297" fill="none" xmlns="http://www.w3.org/2000/svg">
<path d="M177.99 2.45577C196.055 5.60553 214.562 9.89907 229.451 20.7993C244.186 31.5869 251.916 49.2704 262.478 64.3105C272.901 79.1531 285.676 92.4749 291.824 109.622C298.115 127.17 300.033 146.161 298.497 164.779C296.954 183.492 291.82 201.907 282.858 218.311C274.007 234.511 260.142 246.827 246.794 259.42C233.34 272.113 220.775 286.983 203.488 293.19C186.25 299.38 167.353 296.06 149.143 294.481C131.699 292.969 114.476 290.318 98.0831 284.05C81.5649 277.734 66.0712 269.033 52.5058 257.531C38.6462 245.779 26.6046 231.916 17.7296 215.916C8.65299 199.553 0.855586 181.761 0.0587743 162.978C-0.732193 144.332 6.6076 126.518 13.1986 109.108C19.5093 92.4384 28.3078 77.2324 38.1232 62.4313C48.2774 47.119 57.3837 30.3863 72.3332 19.9353C87.4274 9.38311 105.917 5.39789 123.98 2.4096C141.904 -0.555631 160.092 -0.664953 177.99 2.45577Z" fill="#F2D09D"/>
</svg>
