<svg width="531" height="473" viewBox="0 0 531 473" fill="none" xmlns="http://www.w3.org/2000/svg">
<path d="M335.787 10.3941C384.816 21.888 428.018 46.001 462.265 77.7604C495.554 108.632 518.189 146.559 526.919 187.642C535.472 227.896 525.364 268.034 510.993 307.089C495.827 348.305 479.297 390.462 441.569 419.597C401.773 450.329 350.113 473.807 296.177 472.979C243.571 472.171 203.733 436.42 157.494 415.235C110.846 393.863 51.8096 385.806 23.365 347.989C-5.53626 309.565 -3.19373 259.665 6.84888 214.951C16.2375 173.148 48.3145 139.658 77.8935 105.201C108.099 70.0149 133.981 29.2196 181.185 11.8665C229.41 -5.86203 285.104 -1.48761 335.787 10.3941Z" fill="#6842FF"/>
</svg>
