<svg width="199" height="60" viewBox="0 0 199 60" fill="none" xmlns="http://www.w3.org/2000/svg">
<g clip-path="url(#clip0_6_40)">
<path d="M4.55922 26.7895C6.10925 26.7568 7.73035 26.486 9.27763 26.2169C9.94193 26.2028 10.5297 25.9539 11.194 25.9399C13.9933 25.4078 16.7926 24.8757 19.5919 24.3436C22.9818 23.799 26.295 23.0196 29.6848 22.475C34.4716 21.428 39.261 20.6174 44.0478 19.5704C45.1522 19.3106 46.2593 19.2871 47.3638 19.0273C50.1631 18.4952 52.9624 17.9632 55.7645 17.6674C58.5638 17.1353 61.3631 16.6033 64.1652 16.3075C65.2696 16.0477 66.374 15.7879 67.4812 15.7645C71.9044 15.1981 76.4013 14.6301 80.8245 14.0636C83.5528 13.7695 86.281 13.4753 89.0803 12.9432C90.1875 12.9198 91.2181 12.6616 92.3253 12.6382C96.6036 12.3112 100.956 11.9827 105.234 11.6558C109.512 11.3288 113.717 11.0035 117.995 10.6765C119.102 10.6531 120.209 10.6297 121.39 10.6047C124.195 10.5454 126.926 10.4876 129.731 10.4283C134.086 10.3362 138.367 10.2456 142.719 9.91712C144.121 9.88746 145.524 9.8578 146.926 9.82813C149.879 9.76568 152.831 9.70323 155.784 9.64078C156.005 9.63609 156.3 9.62985 156.522 9.62517C149.881 10.0021 143.167 10.3805 136.53 10.9938C133.728 11.2895 130.997 11.3473 128.195 11.643C127.014 11.668 125.759 11.6945 124.581 11.9559C120.524 12.2781 116.544 12.8352 112.487 13.1575C107.842 13.7286 103.195 14.0633 98.5502 14.6345C97.7382 14.6516 97.0029 14.9036 96.191 14.9208C93.6869 15.4466 91.2539 15.7346 88.7498 16.2604C83.7389 17.0757 78.728 17.891 73.7171 18.7063C72.9789 18.722 72.2436 18.974 71.5082 19.226C69.0779 19.7502 66.5766 20.5125 64.1464 21.0368C59.7287 22.076 55.3848 23.1136 50.9672 24.1528C49.7889 24.4142 48.5396 24.9135 47.3614 25.1749C44.5648 25.9433 41.7683 26.7118 38.9744 27.7167C35.4425 28.7372 31.8367 29.7592 28.3048 30.7797C23.376 32.3026 18.3733 33.827 13.4444 35.3499C12.2662 35.6113 11.0907 36.109 9.83869 36.372C7.70642 37.1264 5.57414 37.8808 3.44187 38.6352C3.22043 38.6399 3.0045 39.1174 3.01549 40.0629C3.02374 40.7721 3.25342 41.4765 3.47485 41.4718C4.28677 41.4547 5.02763 41.6754 5.83956 41.6583C5.70568 42.8433 5.64011 43.554 5.64836 44.2632C5.67859 46.8634 6.37038 49.2132 7.25611 49.1944C13.3687 47.8829 19.4047 46.3366 25.52 45.2615C30.8262 44.4399 36.1296 43.382 41.4357 42.5604C47.2558 41.4915 53.1497 40.4211 58.9725 39.5886C60.8151 39.3132 62.6576 39.0378 64.4974 38.526C65.0141 38.5151 65.528 38.2678 66.1185 38.2553C75.558 37.3463 84.9949 36.2009 94.4344 35.2919C99.4481 34.713 104.536 34.1325 109.552 33.7899C111.394 33.5145 113.166 33.477 115.008 33.2016C124.672 32.5243 134.336 31.847 144 31.1698C148.13 30.8459 152.261 30.5221 156.392 30.1983C159.932 29.887 163.475 29.812 167.012 29.2643C169.962 28.9655 172.835 28.4318 175.785 28.133C177.258 27.8654 178.735 27.8342 180.134 27.5681C183.447 26.7887 186.761 26.0093 190.074 25.2299C189.864 26.1801 189.88 27.5984 189.965 28.5424C190.052 29.7228 190.285 30.6636 190.659 31.1286C190.96 31.5951 191.408 32.0585 191.698 31.5795C192.425 30.6183 193.152 29.6572 193.806 28.6976C193.806 28.6976 193.806 28.6976 193.732 28.6992C193.806 28.6976 193.803 28.4612 193.877 28.4596C193.951 28.4581 194.022 28.2201 194.022 28.2201L193.948 28.2217C194.311 27.7411 194.675 27.2606 195.11 26.542C195.473 26.0615 195.908 25.343 196.271 24.8624C196.706 24.1439 197.067 23.4269 197.501 22.7084C197.936 21.9899 198.209 20.0926 198.19 18.4379C198.179 17.4923 198.097 16.7848 197.938 15.8423C197.78 14.8999 197.397 13.7258 197.025 13.4973C196.653 13.2687 196.282 13.0401 195.912 13.0479C195.839 13.0495 195.765 13.051 195.691 13.0526C195.47 13.0573 195.174 13.0635 194.956 13.3046C194.368 13.5535 193.854 13.8008 193.264 13.8133C192.821 13.8226 192.381 14.0684 191.864 14.0793C190.612 14.3422 189.434 14.6036 188.184 15.1029C187.889 15.1091 187.523 15.3533 187.228 15.3596C187.37 14.8837 187.438 14.4094 187.432 13.9366C187.501 13.4623 187.495 12.9895 187.49 12.5167C187.487 12.2804 187.482 11.8076 187.553 11.5696C187.547 11.0969 187.542 10.6241 187.465 10.3893C187.465 10.3893 187.539 10.3877 187.536 10.1513C187.752 9.6739 187.968 9.19645 188.105 8.24779C188.244 7.53552 188.307 6.58843 188.296 5.64289C188.285 4.69736 188.203 3.98977 188.044 3.04736C187.968 2.81254 187.888 2.34134 187.812 2.10651C187.582 1.40205 187.358 1.17035 187.134 0.93865C186.685 0.475251 186.166 0.249796 185.649 0.260725C185.206 0.270093 184.837 0.277899 184.394 0.287267C183.804 0.299757 183.213 0.312247 182.623 0.324737C181.811 0.341911 180.925 0.360647 180.113 0.37782C177.899 0.424659 175.685 0.471497 173.47 0.518335C171.404 0.56205 169.263 0.607327 167.196 0.651043C165.277 0.691636 163.432 0.730668 161.513 0.77126C153.91 0.932071 146.384 1.3277 138.785 1.7249C133.104 2.0815 127.423 2.4381 121.74 2.55832C119.23 2.6114 116.65 2.90243 114.143 3.1919C108.465 3.78488 102.784 4.14148 97.1061 4.73446C95.4823 4.76881 93.8612 5.03954 92.2373 5.07389C91.2778 5.09419 90.3948 5.34931 89.4353 5.3696C83.8339 6.19741 78.2325 7.02521 72.6311 7.85302C70.9362 8.12531 69.2413 8.39761 67.4725 8.67146C66.513 8.69176 65.5562 8.94844 64.5994 9.20512C59.0008 10.2693 53.4759 11.3319 47.8773 12.3961C45.0041 12.9298 42.131 13.4634 39.2606 14.2335C34.3263 15.2836 29.3919 16.3337 24.5341 17.6187C20.2641 18.6548 15.9913 19.4545 11.7185 20.2542C11.0569 20.5046 10.3926 20.5187 9.65728 20.7707C8.55286 21.0305 7.4457 21.0539 6.34128 21.3137C5.39273 22.2795 4.35938 22.3014 3.39983 22.3217C3.31503 21.3777 3.01153 20.6748 2.79285 20.9159C2.12855 20.9299 1.54081 21.1788 0.879259 21.4292C0.586764 21.6719 0.297017 22.1509 0.2342 23.098C0.174133 24.2814 0.409309 25.4587 0.707302 25.6888C1.0053 25.919 1.30329 26.1491 1.60128 26.3792C1.89927 26.6094 2.12071 26.6047 2.41595 26.5984C3.15681 26.8192 3.82111 26.8052 4.55922 26.7895ZM177.189 15.5719C178.075 15.5532 179.034 15.5329 179.92 15.5141C180.002 16.2217 180.155 16.6914 180.309 17.161C179.939 17.1688 179.573 17.413 179.278 17.4193C178.614 17.4333 177.952 17.6838 177.288 17.6978C174.338 17.9966 171.465 18.5303 168.515 18.8291C167.189 19.0936 165.864 19.3581 164.535 19.3862C162.468 19.4299 160.33 19.7116 158.264 19.7553C153.469 20.0932 148.748 20.4295 143.953 20.7673C134.658 21.4368 125.437 22.1047 116.142 22.7742C109.502 23.1511 102.867 24.0008 96.2326 24.8505C86.2791 26.0068 76.249 26.9282 66.2955 28.0845C64.3054 28.3631 62.3152 28.6416 60.3278 29.1565C54.6554 30.2223 48.9802 31.0517 43.3077 32.1174C37.7829 33.18 32.1815 34.0078 26.6566 35.0705C26.1399 35.0814 25.626 35.3287 25.1093 35.3396C26.5801 34.8356 28.1274 34.5665 29.5981 34.0625C34.8249 32.7697 40.049 31.2406 45.2759 29.9478C47.1156 29.436 48.9554 28.9242 50.7214 28.414C51.6782 28.1573 52.635 27.9006 53.5207 27.8819C59.0455 26.8192 64.4938 25.5218 69.9449 24.4607C70.9755 24.2025 72.0799 23.9427 73.1105 23.6844C74.6578 23.4153 76.205 23.1461 77.6813 23.1149C83.2827 22.2871 88.8841 21.4593 94.4855 20.6315C95.7375 20.3685 96.9923 20.342 98.1705 20.0806C98.4658 20.0744 98.8348 20.0666 99.1301 20.0603C100.016 20.0416 100.902 20.0229 101.711 19.7693C107.315 19.1779 112.996 18.8213 118.6 18.2299C121.18 17.9388 123.761 17.6478 126.344 17.5932C134.682 17.1804 143.094 16.766 151.432 16.3532C160.142 16.169 168.701 15.7515 177.189 15.5719Z" fill="#DB46C3"/>
</g>
<defs>
<clipPath id="clip0_6_40">
<rect width="198.02" height="55.7763" fill="white" transform="matrix(0.999776 -0.0211475 0.0116273 0.999932 0 4.18762)"/>
</clipPath>
</defs>
</svg>
