<svg width="276" height="210" viewBox="0 0 276 210" fill="none" xmlns="http://www.w3.org/2000/svg">
<path d="M260.799 0.382294H15.2009C6.81893 0.382294 0 7.20122 0 15.5832V194.417C0 202.799 6.81893 209.618 15.2009 209.618H260.799C269.181 209.618 276 202.799 276 194.417V15.5832C276 7.20122 269.181 0.382294 260.799 0.382294ZM267.058 194.417C267.058 197.868 264.251 200.676 260.799 200.676H15.2009C11.7494 200.676 8.94168 197.868 8.94168 194.417V15.5832C8.94168 12.1317 11.7494 9.32398 15.2009 9.32398H260.799C264.251 9.32398 267.058 12.1317 267.058 15.5832V194.417Z" fill="black"/>
<path d="M104.618 90.9914C102.149 90.9914 100.147 92.9931 100.147 95.4622V176.533C100.147 179.003 102.149 181.004 104.618 181.004C107.087 181.004 109.089 179.003 109.089 176.533V95.4622C109.089 92.9931 107.087 90.9914 104.618 90.9914Z" fill="black"/>
<path d="M123.395 66.8476C123.395 59.1232 117.111 52.839 109.387 52.839H109.089V33.4665C109.089 30.9974 107.087 28.9957 104.618 28.9957C102.149 28.9957 100.147 30.9974 100.147 33.4665V52.839H99.8488C92.1244 52.839 85.8402 59.1232 85.8402 66.8476C85.8402 74.5721 92.1244 80.8563 99.8488 80.8563H109.387C117.111 80.8563 123.395 74.5721 123.395 66.8476ZM109.387 71.9146H99.8488C97.0549 71.9146 94.7819 69.6416 94.7819 66.8476C94.7819 64.0537 97.0549 61.7807 99.8488 61.7807H109.387C112.181 61.7807 114.454 64.0537 114.454 66.8476C114.454 69.6416 112.181 71.9146 109.387 71.9146Z" fill="black"/>
<path d="M171.382 81.4536C168.913 81.4536 166.911 83.4553 166.911 85.9244V176.533C166.911 179.003 168.913 181.004 171.382 181.004C173.851 181.004 175.853 179.003 175.853 176.533V85.9244C175.853 83.4553 173.851 81.4536 171.382 81.4536Z" fill="black"/>
<path d="M190.16 52.5421C190.16 44.8177 183.876 38.5335 176.151 38.5335H175.853V33.4665C175.853 30.9974 173.851 28.9957 171.382 28.9957C168.913 28.9957 166.911 30.9974 166.911 33.4665V38.5335H166.613C158.889 38.5335 152.605 44.8177 152.605 52.5421C152.605 60.2666 158.889 66.5508 166.613 66.5508H176.151C183.876 66.5508 190.16 60.2666 190.16 52.5421ZM176.151 57.6091H166.613C163.819 57.6091 161.546 55.3361 161.546 52.5421C161.546 49.7482 163.819 47.4752 166.613 47.4752H176.151C178.945 47.4752 181.218 49.7482 181.218 52.5421C181.218 55.3361 178.945 57.6091 176.151 57.6091Z" fill="black"/>
<path d="M37.8532 81.4536C35.3841 81.4536 33.3823 83.4553 33.3823 85.9244V176.533C33.3823 179.003 35.3841 181.004 37.8532 181.004C40.3223 181.004 42.324 179.003 42.324 176.533V85.9244C42.324 83.4553 40.3223 81.4536 37.8532 81.4536Z" fill="black"/>
<path d="M56.6306 57.311C56.6306 49.5866 50.3464 43.3024 42.622 43.3024H42.3239V33.4665C42.3239 30.9974 40.3222 28.9957 37.8531 28.9957C35.384 28.9957 33.3823 30.9974 33.3823 33.4665V43.3024H33.0842C25.3598 43.3024 19.0756 49.5866 19.0756 57.311C19.0756 65.0355 25.3598 71.3197 33.0842 71.3197H42.622C50.3464 71.3197 56.6306 65.0355 56.6306 57.311ZM42.622 62.378H33.0842C30.2902 62.378 28.0172 60.105 28.0172 57.311C28.0172 54.5171 30.2902 52.2441 33.0842 52.2441H42.622C45.416 52.2441 47.6889 54.5171 47.6889 57.311C47.6889 60.105 45.416 62.378 42.622 62.378Z" fill="black"/>
<path d="M138 167.294C135.531 167.294 133.529 169.295 133.529 171.765V176.533C133.529 179.003 135.531 181.004 138 181.004C140.469 181.004 142.471 179.003 142.471 176.533V171.765C142.471 169.295 140.469 167.294 138 167.294Z" fill="black"/>
<path d="M142.769 129.144H142.471V33.4665C142.471 30.9974 140.469 28.9957 138 28.9957C135.531 28.9957 133.529 30.9974 133.529 33.4665V129.144H133.231C125.507 129.144 119.222 135.428 119.222 143.152C119.222 150.877 125.507 157.161 133.231 157.161H142.769C150.493 157.161 156.777 150.877 156.777 143.152C156.777 135.428 150.493 129.144 142.769 129.144ZM142.769 148.219H133.231C130.437 148.219 128.164 145.946 128.164 143.152C128.164 140.358 130.437 138.085 133.231 138.085H142.769C145.563 138.085 147.836 140.358 147.836 143.152C147.836 145.946 145.563 148.219 142.769 148.219Z" fill="black"/>
<path d="M238.147 105.298C235.678 105.298 233.676 107.3 233.676 109.769V176.533C233.676 179.003 235.678 181.004 238.147 181.004C240.616 181.004 242.618 179.003 242.618 176.533V109.769C242.618 107.3 240.616 105.298 238.147 105.298Z" fill="black"/>
<path d="M242.916 67.1457H242.618V33.4665C242.618 30.9974 240.616 28.9957 238.147 28.9957C235.678 28.9957 233.676 30.9974 233.676 33.4665V67.1457H233.378C225.654 67.1457 219.369 73.4299 219.369 81.1543C219.369 88.8788 225.654 95.163 233.378 95.163H242.916C250.64 95.163 256.924 88.8788 256.924 81.1543C256.924 73.4299 250.64 67.1457 242.916 67.1457ZM242.916 86.2213H233.378C230.584 86.2213 228.311 83.9483 228.311 81.1543C228.311 78.3604 230.584 76.0874 233.378 76.0874H242.916C245.71 76.0874 247.983 78.3604 247.983 81.1543C247.983 83.9483 245.71 86.2213 242.916 86.2213Z" fill="black"/>
<path d="M204.765 157.756C202.295 157.756 200.294 159.758 200.294 162.227V176.533C200.294 179.003 202.295 181.004 204.765 181.004C207.234 181.004 209.235 179.003 209.235 176.533V162.227C209.235 159.758 207.234 157.756 204.765 157.756Z" fill="black"/>
<path d="M209.533 119.606H209.235V33.4665C209.235 30.9974 207.234 28.9957 204.765 28.9957C202.295 28.9957 200.294 30.9974 200.294 33.4665V119.606H199.996C192.271 119.606 185.987 125.89 185.987 133.615C185.987 141.339 192.271 147.623 199.996 147.623H209.533C217.258 147.623 223.542 141.339 223.542 133.615C223.542 125.89 217.258 119.606 209.533 119.606ZM209.533 138.682H199.996C197.202 138.682 194.929 136.409 194.929 133.615C194.929 130.821 197.202 128.548 199.996 128.548H209.533C212.327 128.548 214.6 130.821 214.6 133.615C214.6 136.409 212.327 138.682 209.533 138.682Z" fill="black"/>
<path d="M71.2354 143.449C68.7663 143.449 66.7645 145.451 66.7645 147.92V176.533C66.7645 179.003 68.7663 181.004 71.2354 181.004C73.7045 181.004 75.7062 179.003 75.7062 176.533V147.92C75.7062 145.451 73.7045 143.449 71.2354 143.449Z" fill="black"/>
<path d="M76.0043 105.299H75.7063V33.4665C75.7063 30.9974 73.7045 28.9957 71.2354 28.9957C68.7663 28.9957 66.7646 30.9974 66.7646 33.4665V105.299H66.4665C58.7421 105.299 52.4579 111.583 52.4579 119.308C52.4579 127.032 58.7421 133.317 66.4665 133.317H76.0043C83.7287 133.317 90.013 127.032 90.013 119.308C90.013 111.583 83.7287 105.299 76.0043 105.299ZM66.4665 124.375C63.6725 124.375 61.3996 122.102 61.3996 119.308C61.3996 116.514 63.6725 114.241 66.4665 114.241H76.0043C78.7983 114.241 81.0713 116.514 81.0713 119.308C81.0713 122.102 78.7983 124.375 76.0043 124.375H66.4665Z" fill="black"/>
<path d="M76.0043 105.299H75.7063V33.4665C75.7063 30.9974 73.7045 28.9957 71.2354 28.9957C68.7663 28.9957 66.7646 30.9974 66.7646 33.4665V105.299H66.4665C58.7421 105.299 52.4579 111.583 52.4579 119.308C52.4579 127.032 58.7421 133.317 66.4665 133.317H76.0043C83.7287 133.317 90.013 127.032 90.013 119.308C90.013 111.583 83.7287 105.299 76.0043 105.299ZM66.4665 124.375C63.6725 124.375 61.3996 122.102 61.3996 119.308C61.3996 116.514 63.6725 114.241 66.4665 114.241H76.0043C78.7983 114.241 81.0713 116.514 81.0713 119.308C81.0713 122.102 78.7983 124.375 76.0043 124.375H66.4665Z" stroke="black"/>
</svg>
